# MagicaVoxel @ Ephtracy

# group
o 

# material
mtllib alice_Rleg2.mtl
usemtl palette

# normals
vn -1 0 0
vn 1 0 0
vn 0 0 1
vn 0 0 -1
vn 0 -1 0
vn 0 1 0

# texcoords
vt 0.962891 0.5
vt 0.966797 0.5
vt 0.994141 0.5

# verts
v 0.3 0.1 0.4
v 0.3 0.1 0
v 0.3 0.3 0.4
v 0.3 0.3 0.3
v 0.3 0.4 0.3
v 0.3 0.4 0
v 0.3 0.6 0.3
v 0.3 0.6 0
v 0.3 0.7 0.3
v 0.3 0.7 0
v 0.3 0.8 0.3
v 0.3 0.8 0
v 0.3 0.9 0.3
v 0.3 0.9 0
v 0.3 1 0.3
v 0.3 1 0
v 0.6 0.1 0.4
v 0.6 0.1 0
v 0.6 0.3 0.4
v 0.6 0.3 0.3
v 0.6 0.5 0.3
v 0.6 0.5 0
v 0.6 0.6 0.3
v 0.6 0.6 0
v 0.6 0.7 0.3
v 0.6 0.7 0
v 0.6 0.8 0.3
v 0.6 0.8 0
v 0.6 0.9 0.3
v 0.6 0.9 0
v 0.6 1 0.3
v 0.6 1 0
v 0.3 0.1 0.4
v 0.3 0.3 0.4
v 0.6 0.1 0.4
v 0.6 0.3 0.4
v 0.3 0.3 0.3
v 0.3 0.4 0.3
v 0.3 0.6 0.3
v 0.3 0.7 0.3
v 0.3 0.8 0.3
v 0.3 0.9 0.3
v 0.3 1 0.3
v 0.5 0.4 0.3
v 0.5 0.5 0.3
v 0.6 0.3 0.3
v 0.6 0.5 0.3
v 0.6 0.6 0.3
v 0.6 0.7 0.3
v 0.6 0.8 0.3
v 0.6 0.9 0.3
v 0.6 1 0.3
v 0.3 0.1 0
v 0.3 0.4 0
v 0.3 0.6 0
v 0.3 0.7 0
v 0.3 0.8 0
v 0.3 0.9 0
v 0.3 1 0
v 0.5 0.4 0
v 0.5 0.5 0
v 0.6 0.1 0
v 0.6 0.5 0
v 0.6 0.6 0
v 0.6 0.7 0
v 0.6 0.8 0
v 0.6 0.9 0
v 0.6 1 0
v 0.3 0.1 0.4
v 0.6 0.1 0.4
v 0.3 0.1 0
v 0.6 0.1 0
v 0.3 0.3 0.4
v 0.6 0.3 0.4
v 0.3 0.3 0.3
v 0.6 0.3 0.3
v 0.3 1 0.3
v 0.6 1 0.3
v 0.3 1 0
v 0.6 1 0

# faces
f 3/3/1 2/3/1 1/3/1
f 4/3/1 2/3/1 3/3/1
f 5/3/1 2/3/1 4/3/1
f 6/3/1 2/3/1 5/3/1
f 7/2/1 6/2/1 5/2/1
f 8/2/1 6/2/1 7/2/1
f 9/3/1 8/3/1 7/3/1
f 10/3/1 8/3/1 9/3/1
f 11/2/1 10/2/1 9/2/1
f 12/2/1 10/2/1 11/2/1
f 13/3/1 12/3/1 11/3/1
f 14/3/1 12/3/1 13/3/1
f 15/2/1 14/2/1 13/2/1
f 16/2/1 14/2/1 15/2/1
f 17/3/2 18/3/2 19/3/2
f 19/3/2 18/3/2 20/3/2
f 20/3/2 18/3/2 21/3/2
f 21/3/2 18/3/2 22/3/2
f 21/2/2 22/2/2 23/2/2
f 23/2/2 22/2/2 24/2/2
f 23/3/2 24/3/2 25/3/2
f 25/3/2 24/3/2 26/3/2
f 25/2/2 26/2/2 27/2/2
f 27/2/2 26/2/2 28/2/2
f 27/3/2 28/3/2 29/3/2
f 29/3/2 28/3/2 30/3/2
f 29/2/2 30/2/2 31/2/2
f 31/2/2 30/2/2 32/2/2
f 35/3/3 34/3/3 33/3/3
f 36/3/3 34/3/3 35/3/3
f 44/3/3 38/3/3 37/3/3
f 44/2/3 39/2/3 38/2/3
f 45/2/3 39/2/3 44/2/3
f 46/3/3 44/3/3 37/3/3
f 46/3/3 45/3/3 44/3/3
f 47/2/3 39/2/3 45/2/3
f 47/3/3 45/3/3 46/3/3
f 48/3/3 40/3/3 39/3/3
f 48/2/3 39/2/3 47/2/3
f 49/2/3 41/2/3 40/2/3
f 49/3/3 40/3/3 48/3/3
f 50/3/3 42/3/3 41/3/3
f 50/2/3 41/2/3 49/2/3
f 51/2/3 43/2/3 42/2/3
f 51/3/3 42/3/3 50/3/3
f 52/2/3 43/2/3 51/2/3
f 53/3/4 54/3/4 60/3/4
f 54/2/4 55/2/4 60/2/4
f 60/2/4 55/2/4 61/2/4
f 53/3/4 60/3/4 62/3/4
f 60/3/4 61/3/4 62/3/4
f 61/2/4 55/2/4 63/2/4
f 62/3/4 61/3/4 63/3/4
f 55/3/4 56/3/4 64/3/4
f 63/2/4 55/2/4 64/2/4
f 56/2/4 57/2/4 65/2/4
f 64/3/4 56/3/4 65/3/4
f 57/3/4 58/3/4 66/3/4
f 65/2/4 57/2/4 66/2/4
f 58/2/4 59/2/4 67/2/4
f 66/3/4 58/3/4 67/3/4
f 67/2/4 59/2/4 68/2/4
f 71/3/5 70/3/5 69/3/5
f 72/3/5 70/3/5 71/3/5
f 73/3/6 74/3/6 75/3/6
f 75/3/6 74/3/6 76/3/6
f 77/2/6 78/2/6 79/2/6
f 79/2/6 78/2/6 80/2/6
