# MagicaVoxel @ Ephtracy

# group
o 

# material
mtllib alice_Lleg1.mtl
usemtl palette

# normals
vn -1 0 0
vn 1 0 0
vn 0 0 1
vn 0 0 -1
vn 0 -1 0
vn 0 1 0

# texcoords
vt 0.349609 0.5
vt 0.966797 0.5
vt 0.970703 0.5
vt 0.994141 0.5

# verts
v -0.4 1 0.3
v -0.4 1 -2.98023e-08
v -0.4 1.1 0.3
v -0.4 1.1 -2.98023e-08
v -0.4 1.2 0.3
v -0.4 1.2 -2.98023e-08
v -0.4 1.3 0.3
v -0.4 1.3 -2.98023e-08
v -0.4 1.4 0.3
v -0.4 1.4 -2.98023e-08
v -0.4 1.5 0.3
v -0.4 1.5 -2.98023e-08
v -0.4 1.8 0.3
v -0.4 1.8 -2.98023e-08
v -0.1 1 0.3
v -0.1 1 -2.98023e-08
v -0.1 1.1 0.3
v -0.1 1.1 -2.98023e-08
v -0.1 1.2 0.3
v -0.1 1.2 -2.98023e-08
v -0.1 1.3 0.3
v -0.1 1.3 -2.98023e-08
v -0.1 1.4 0.3
v -0.1 1.4 -2.98023e-08
v -0.1 1.5 0.3
v -0.1 1.5 -2.98023e-08
v -0.1 1.8 0.3
v -0.1 1.8 -2.98023e-08
v -0.4 1 0.3
v -0.4 1.1 0.3
v -0.4 1.2 0.3
v -0.4 1.3 0.3
v -0.4 1.4 0.3
v -0.4 1.5 0.3
v -0.4 1.8 0.3
v -0.1 1 0.3
v -0.1 1.1 0.3
v -0.1 1.2 0.3
v -0.1 1.3 0.3
v -0.1 1.4 0.3
v -0.1 1.5 0.3
v -0.1 1.8 0.3
v -0.4 1 -2.98023e-08
v -0.4 1.1 -2.98023e-08
v -0.4 1.2 -2.98023e-08
v -0.4 1.3 -2.98023e-08
v -0.4 1.4 -2.98023e-08
v -0.4 1.5 -2.98023e-08
v -0.4 1.8 -2.98023e-08
v -0.1 1 -2.98023e-08
v -0.1 1.1 -2.98023e-08
v -0.1 1.2 -2.98023e-08
v -0.1 1.3 -2.98023e-08
v -0.1 1.4 -2.98023e-08
v -0.1 1.5 -2.98023e-08
v -0.1 1.8 -2.98023e-08
v -0.4 1 0.3
v -0.1 1 0.3
v -0.4 1 -2.98023e-08
v -0.1 1 -2.98023e-08
v -0.4 1.8 0.3
v -0.1 1.8 0.3
v -0.4 1.8 -2.98023e-08
v -0.1 1.8 -2.98023e-08

# faces
f 3/4/1 2/4/1 1/4/1
f 4/4/1 2/4/1 3/4/1
f 5/3/1 4/3/1 3/3/1
f 6/3/1 4/3/1 5/3/1
f 7/4/1 6/4/1 5/4/1
f 8/4/1 6/4/1 7/4/1
f 9/3/1 8/3/1 7/3/1
f 10/3/1 8/3/1 9/3/1
f 11/4/1 10/4/1 9/4/1
f 12/4/1 10/4/1 11/4/1
f 13/1/1 12/1/1 11/1/1
f 14/1/1 12/1/1 13/1/1
f 15/4/2 16/4/2 17/4/2
f 17/4/2 16/4/2 18/4/2
f 17/3/2 18/3/2 19/3/2
f 19/3/2 18/3/2 20/3/2
f 19/4/2 20/4/2 21/4/2
f 21/4/2 20/4/2 22/4/2
f 21/3/2 22/3/2 23/3/2
f 23/3/2 22/3/2 24/3/2
f 23/4/2 24/4/2 25/4/2
f 25/4/2 24/4/2 26/4/2
f 25/1/2 26/1/2 27/1/2
f 27/1/2 26/1/2 28/1/2
f 36/4/3 30/4/3 29/4/3
f 37/3/3 31/3/3 30/3/3
f 37/4/3 30/4/3 36/4/3
f 38/4/3 32/4/3 31/4/3
f 38/3/3 31/3/3 37/3/3
f 39/3/3 33/3/3 32/3/3
f 39/4/3 32/4/3 38/4/3
f 40/4/3 34/4/3 33/4/3
f 40/3/3 33/3/3 39/3/3
f 41/1/3 35/1/3 34/1/3
f 41/4/3 34/4/3 40/4/3
f 42/1/3 35/1/3 41/1/3
f 43/4/4 44/4/4 50/4/4
f 44/3/4 45/3/4 51/3/4
f 50/4/4 44/4/4 51/4/4
f 45/4/4 46/4/4 52/4/4
f 51/3/4 45/3/4 52/3/4
f 46/3/4 47/3/4 53/3/4
f 52/4/4 46/4/4 53/4/4
f 47/4/4 48/4/4 54/4/4
f 53/3/4 47/3/4 54/3/4
f 48/1/4 49/1/4 55/1/4
f 54/4/4 48/4/4 55/4/4
f 55/1/4 49/1/4 56/1/4
f 59/4/5 58/4/5 57/4/5
f 60/4/5 58/4/5 59/4/5
f 61/1/6 62/1/6 63/1/6
f 63/1/6 62/1/6 64/1/6
