# MagicaVoxel @ Ephtracy

# group
o 

# material
mtllib alice_Rleg1.mtl
usemtl palette

# normals
vn -1 0 0
vn 1 0 0
vn 0 0 1
vn 0 0 -1
vn 0 -1 0
vn 0 1 0

# texcoords
vt 0.349609 0.5
vt 0.970703 0.5
vt 0.994141 0.5

# verts
v 0.3 1 0.3
v 0.3 1 -2.98023e-08
v 0.3 1.1 0.3
v 0.3 1.1 -2.98023e-08
v 0.3 1.2 0.3
v 0.3 1.2 -2.98023e-08
v 0.3 1.3 0.3
v 0.3 1.3 -2.98023e-08
v 0.3 1.4 0.3
v 0.3 1.4 -2.98023e-08
v 0.3 1.5 0.3
v 0.3 1.5 -2.98023e-08
v 0.3 1.8 0.3
v 0.3 1.8 -2.98023e-08
v 0.6 1 0.3
v 0.6 1 -2.98023e-08
v 0.6 1.1 0.3
v 0.6 1.1 -2.98023e-08
v 0.6 1.2 0.3
v 0.6 1.2 -2.98023e-08
v 0.6 1.3 0.3
v 0.6 1.3 -2.98023e-08
v 0.6 1.4 0.3
v 0.6 1.4 -2.98023e-08
v 0.6 1.5 0.3
v 0.6 1.5 -2.98023e-08
v 0.6 1.8 0.3
v 0.6 1.8 -2.98023e-08
v 0.3 1 0.3
v 0.3 1.1 0.3
v 0.3 1.2 0.3
v 0.3 1.3 0.3
v 0.3 1.4 0.3
v 0.3 1.5 0.3
v 0.3 1.8 0.3
v 0.6 1 0.3
v 0.6 1.1 0.3
v 0.6 1.2 0.3
v 0.6 1.3 0.3
v 0.6 1.4 0.3
v 0.6 1.5 0.3
v 0.6 1.8 0.3
v 0.3 1 -2.98023e-08
v 0.3 1.1 -2.98023e-08
v 0.3 1.2 -2.98023e-08
v 0.3 1.3 -2.98023e-08
v 0.3 1.4 -2.98023e-08
v 0.3 1.5 -2.98023e-08
v 0.3 1.8 -2.98023e-08
v 0.6 1 -2.98023e-08
v 0.6 1.1 -2.98023e-08
v 0.6 1.2 -2.98023e-08
v 0.6 1.3 -2.98023e-08
v 0.6 1.4 -2.98023e-08
v 0.6 1.5 -2.98023e-08
v 0.6 1.8 -2.98023e-08
v 0.3 1 0.3
v 0.6 1 0.3
v 0.3 1 -2.98023e-08
v 0.6 1 -2.98023e-08
v 0.3 1.8 0.3
v 0.6 1.8 0.3
v 0.3 1.8 -2.98023e-08
v 0.6 1.8 -2.98023e-08

# faces
f 3/3/1 2/3/1 1/3/1
f 4/3/1 2/3/1 3/3/1
f 5/2/1 4/2/1 3/2/1
f 6/2/1 4/2/1 5/2/1
f 7/3/1 6/3/1 5/3/1
f 8/3/1 6/3/1 7/3/1
f 9/2/1 8/2/1 7/2/1
f 10/2/1 8/2/1 9/2/1
f 11/3/1 10/3/1 9/3/1
f 12/3/1 10/3/1 11/3/1
f 13/1/1 12/1/1 11/1/1
f 14/1/1 12/1/1 13/1/1
f 15/3/2 16/3/2 17/3/2
f 17/3/2 16/3/2 18/3/2
f 17/2/2 18/2/2 19/2/2
f 19/2/2 18/2/2 20/2/2
f 19/3/2 20/3/2 21/3/2
f 21/3/2 20/3/2 22/3/2
f 21/2/2 22/2/2 23/2/2
f 23/2/2 22/2/2 24/2/2
f 23/3/2 24/3/2 25/3/2
f 25/3/2 24/3/2 26/3/2
f 25/1/2 26/1/2 27/1/2
f 27/1/2 26/1/2 28/1/2
f 36/3/3 30/3/3 29/3/3
f 37/2/3 31/2/3 30/2/3
f 37/3/3 30/3/3 36/3/3
f 38/3/3 32/3/3 31/3/3
f 38/2/3 31/2/3 37/2/3
f 39/2/3 33/2/3 32/2/3
f 39/3/3 32/3/3 38/3/3
f 40/3/3 34/3/3 33/3/3
f 40/2/3 33/2/3 39/2/3
f 41/1/3 35/1/3 34/1/3
f 41/3/3 34/3/3 40/3/3
f 42/1/3 35/1/3 41/1/3
f 43/3/4 44/3/4 50/3/4
f 44/2/4 45/2/4 51/2/4
f 50/3/4 44/3/4 51/3/4
f 45/3/4 46/3/4 52/3/4
f 51/2/4 45/2/4 52/2/4
f 46/2/4 47/2/4 53/2/4
f 52/3/4 46/3/4 53/3/4
f 47/3/4 48/3/4 54/3/4
f 53/2/4 47/2/4 54/2/4
f 48/1/4 49/1/4 55/1/4
f 54/3/4 48/3/4 55/3/4
f 55/1/4 49/1/4 56/1/4
f 59/3/5 58/3/5 57/3/5
f 60/3/5 58/3/5 59/3/5
f 61/1/6 62/1/6 63/1/6
f 63/1/6 62/1/6 64/1/6
