# MagicaVoxel @ Ephtracy

# group
o 

# material
mtllib closet_door_R.mtl
usemtl palette

# normals
vn -1 0 0
vn 1 0 0
vn 0 0 1
vn 0 0 -1
vn 0 -1 0
vn 0 1 0

# texcoords
vt 0.310547 0.5
vt 0.466797 0.5

# verts
v 0.1 1.1 2
v 0.1 1.1 1.8
v 0.1 6.6 2
v 0.1 6.6 1.8
v 0.2 3.3 2.2
v 0.2 3.3 2.1
v 0.2 3.6 2.2
v 0.2 3.6 2.1
v 0.3 3.4 2.1
v 0.3 3.4 2
v 0.3 3.5 2.1
v 0.3 3.5 2
v 0.5 1.5 2.1
v 0.5 1.5 2
v 0.5 3.3 2.1
v 0.5 3.3 2
v 0.5 3.6 2.1
v 0.5 3.6 2
v 0.5 6.2 2.1
v 0.5 6.2 2
v 0.7 6 2.1
v 0.7 6 2
v 0.7 6.1 2.1
v 0.7 6.1 2
v 1 5.9 2.1
v 1 5.9 2
v 1 6 2.1
v 1 6 2
v 1.2 5.8 2.1
v 1.2 5.8 2
v 1.2 5.9 2.1
v 1.2 5.9 2
v 1.3 5.7 2.1
v 1.3 5.7 2
v 1.3 5.8 2.1
v 1.3 5.8 2
v 1.5 5.6 2.1
v 1.5 5.6 2
v 1.5 5.7 2.1
v 1.5 5.7 2
v 1.6 5.5 2.1
v 1.6 5.5 2
v 1.6 5.6 2.1
v 1.6 5.6 2
v 1.7 1.6 2.1
v 1.7 1.6 2
v 1.7 3.2 2.1
v 1.7 3.2 2
v 1.7 3.7 2.1
v 1.7 3.7 2
v 1.7 5.5 2.1
v 1.7 5.5 2
v 0.4 3.4 2.1
v 0.4 3.4 2
v 0.4 3.5 2.1
v 0.4 3.5 2
v 0.5 3.3 2.2
v 0.5 3.3 2.1
v 0.5 3.6 2.2
v 0.5 3.6 2.1
v 0.5 6.5 2
v 0.5 6.5 1.8
v 0.5 6.6 2
v 0.5 6.6 1.8
v 0.6 1.6 2.1
v 0.6 1.6 2
v 0.6 3.2 2.1
v 0.6 3.2 2
v 0.6 3.7 2.1
v 0.6 3.7 2
v 0.6 6.1 2.1
v 0.6 6.1 2
v 0.7 6.1 2.1
v 0.7 6.1 2
v 0.7 6.2 2.1
v 0.7 6.2 2
v 0.7 6.4 2
v 0.7 6.4 1.8
v 0.7 6.5 2
v 0.7 6.5 1.8
v 0.9 6.3 2
v 0.9 6.3 1.8
v 0.9 6.4 2
v 0.9 6.4 1.8
v 1 6 2.1
v 1 6 2
v 1 6.1 2.1
v 1 6.1 2
v 1.1 6.2 2
v 1.1 6.2 1.8
v 1.1 6.3 2
v 1.1 6.3 1.8
v 1.2 5.9 2.1
v 1.2 5.9 2
v 1.2 6 2.1
v 1.2 6 2
v 1.3 5.8 2.1
v 1.3 5.8 2
v 1.3 5.9 2.1
v 1.3 5.9 2
v 1.3 6.1 2
v 1.3 6.1 1.8
v 1.3 6.2 2
v 1.3 6.2 1.8
v 1.4 6 2
v 1.4 6 1.8
v 1.4 6.1 2
v 1.4 6.1 1.8
v 1.5 5.7 2.1
v 1.5 5.7 2
v 1.5 5.8 2.1
v 1.5 5.8 2
v 1.6 5.6 2.1
v 1.6 5.6 2
v 1.6 5.7 2.1
v 1.6 5.7 2
v 1.7 5.5 2.1
v 1.7 5.5 2
v 1.7 5.6 2.1
v 1.7 5.6 2
v 1.8 1.5 2.1
v 1.8 1.5 2
v 1.8 3.3 2.1
v 1.8 3.3 2
v 1.8 3.6 2.1
v 1.8 3.6 2
v 1.8 5.5 2.1
v 1.8 5.5 2
v 2.2 1.1 2
v 2.2 1.1 1.8
v 2.2 6 2
v 2.2 6 1.8
v 0.2 3.3 2.2
v 0.2 3.6 2.2
v 0.5 3.3 2.2
v 0.5 3.6 2.2
v 0.5 1.5 2.1
v 0.5 3.3 2.1
v 0.5 3.6 2.1
v 0.5 6.2 2.1
v 0.6 1.6 2.1
v 0.6 3.2 2.1
v 0.6 3.7 2.1
v 0.6 6.1 2.1
v 0.7 6 2.1
v 0.7 6.1 2.1
v 0.7 6.2 2.1
v 1 5.9 2.1
v 1 6 2.1
v 1 6.1 2.1
v 1.2 5.8 2.1
v 1.2 5.9 2.1
v 1.2 6 2.1
v 1.3 5.7 2.1
v 1.3 5.8 2.1
v 1.3 5.9 2.1
v 1.5 5.6 2.1
v 1.5 5.7 2.1
v 1.5 5.8 2.1
v 1.6 5.5 2.1
v 1.6 5.6 2.1
v 1.6 5.7 2.1
v 1.7 1.6 2.1
v 1.7 3.2 2.1
v 1.7 3.7 2.1
v 1.7 5.5 2.1
v 1.7 5.6 2.1
v 1.8 1.5 2.1
v 1.8 3.3 2.1
v 1.8 3.6 2.1
v 1.8 5.5 2.1
v 0.1 1.1 2
v 0.1 6.6 2
v 0.3 3.4 2
v 0.3 3.5 2
v 0.4 3.4 2
v 0.4 3.5 2
v 0.5 1.5 2
v 0.5 3.3 2
v 0.5 3.6 2
v 0.5 6.2 2
v 0.5 6.5 2
v 0.5 6.6 2
v 0.6 1.6 2
v 0.6 3.2 2
v 0.6 3.7 2
v 0.6 6.1 2
v 0.7 6 2
v 0.7 6.1 2
v 0.7 6.2 2
v 0.7 6.4 2
v 0.7 6.5 2
v 0.9 6.3 2
v 0.9 6.4 2
v 1 5.9 2
v 1 6 2
v 1 6.1 2
v 1.1 6.2 2
v 1.1 6.3 2
v 1.2 5.8 2
v 1.2 5.9 2
v 1.2 6 2
v 1.3 5.7 2
v 1.3 5.8 2
v 1.3 5.9 2
v 1.3 6.1 2
v 1.3 6.2 2
v 1.4 6 2
v 1.4 6.1 2
v 1.5 5.6 2
v 1.5 5.7 2
v 1.5 5.8 2
v 1.6 5.5 2
v 1.6 5.6 2
v 1.6 5.7 2
v 1.7 1.6 2
v 1.7 3.2 2
v 1.7 3.7 2
v 1.7 5.5 2
v 1.7 5.6 2
v 1.8 1.5 2
v 1.8 3.3 2
v 1.8 3.6 2
v 1.8 5.5 2
v 2.2 1.1 2
v 2.2 6 2
v 0.2 3.3 2.1
v 0.2 3.6 2.1
v 0.3 3.4 2.1
v 0.3 3.5 2.1
v 0.4 3.4 2.1
v 0.4 3.5 2.1
v 0.5 3.3 2.1
v 0.5 3.6 2.1
v 0.1 1.1 1.8
v 0.1 6.6 1.8
v 0.5 6.5 1.8
v 0.5 6.6 1.8
v 0.7 6.4 1.8
v 0.7 6.5 1.8
v 0.9 6.3 1.8
v 0.9 6.4 1.8
v 1.1 6.2 1.8
v 1.1 6.3 1.8
v 1.3 6.1 1.8
v 1.3 6.2 1.8
v 1.4 6 1.8
v 1.4 6.1 1.8
v 2.2 1.1 1.8
v 2.2 6 1.8
v 0.1 1.1 2
v 2.2 1.1 2
v 0.1 1.1 1.8
v 2.2 1.1 1.8
v 0.5 1.5 2.1
v 1.8 1.5 2.1
v 0.5 1.5 2
v 1.8 1.5 2
v 0.6 3.2 2.1
v 1.7 3.2 2.1
v 0.6 3.2 2
v 1.7 3.2 2
v 0.2 3.3 2.2
v 0.5 3.3 2.2
v 0.2 3.3 2.1
v 0.5 3.3 2.1
v 0.3 3.4 2.1
v 0.4 3.4 2.1
v 0.3 3.4 2
v 0.4 3.4 2
v 0.5 3.6 2.1
v 1.8 3.6 2.1
v 0.5 3.6 2
v 1.8 3.6 2
v 1.6 5.5 2.1
v 1.7 5.5 2.1
v 1.6 5.5 2
v 1.7 5.5 2
v 1.5 5.6 2.1
v 1.6 5.6 2.1
v 1.5 5.6 2
v 1.6 5.6 2
v 1.3 5.7 2.1
v 1.5 5.7 2.1
v 1.3 5.7 2
v 1.5 5.7 2
v 1.2 5.8 2.1
v 1.3 5.8 2.1
v 1.2 5.8 2
v 1.3 5.8 2
v 1 5.9 2.1
v 1.2 5.9 2.1
v 1 5.9 2
v 1.2 5.9 2
v 0.7 6 2.1
v 1 6 2.1
v 0.7 6 2
v 1 6 2
v 0.6 6.1 2.1
v 0.7 6.1 2.1
v 0.6 6.1 2
v 0.7 6.1 2
v 0.6 1.6 2.1
v 1.7 1.6 2.1
v 0.6 1.6 2
v 1.7 1.6 2
v 0.5 3.3 2.1
v 1.8 3.3 2.1
v 0.5 3.3 2
v 1.8 3.3 2
v 0.3 3.5 2.1
v 0.4 3.5 2.1
v 0.3 3.5 2
v 0.4 3.5 2
v 0.2 3.6 2.2
v 0.5 3.6 2.2
v 0.2 3.6 2.1
v 0.5 3.6 2.1
v 0.6 3.7 2.1
v 1.7 3.7 2.1
v 0.6 3.7 2
v 1.7 3.7 2
v 1.7 5.5 2.1
v 1.8 5.5 2.1
v 1.7 5.5 2
v 1.8 5.5 2
v 1.6 5.6 2.1
v 1.7 5.6 2.1
v 1.6 5.6 2
v 1.7 5.6 2
v 1.5 5.7 2.1
v 1.6 5.7 2.1
v 1.5 5.7 2
v 1.6 5.7 2
v 1.3 5.8 2.1
v 1.5 5.8 2.1
v 1.3 5.8 2
v 1.5 5.8 2
v 1.2 5.9 2.1
v 1.3 5.9 2.1
v 1.2 5.9 2
v 1.3 5.9 2
v 1 6 2.1
v 1.2 6 2.1
v 1 6 2
v 1.2 6 2
v 1.4 6 2
v 2.2 6 2
v 1.4 6 1.8
v 2.2 6 1.8
v 0.7 6.1 2.1
v 1 6.1 2.1
v 0.7 6.1 2
v 1 6.1 2
v 1.3 6.1 2
v 1.4 6.1 2
v 1.3 6.1 1.8
v 1.4 6.1 1.8
v 0.5 6.2 2.1
v 0.7 6.2 2.1
v 0.5 6.2 2
v 0.7 6.2 2
v 1.1 6.2 2
v 1.3 6.2 2
v 1.1 6.2 1.8
v 1.3 6.2 1.8
v 0.9 6.3 2
v 1.1 6.3 2
v 0.9 6.3 1.8
v 1.1 6.3 1.8
v 0.7 6.4 2
v 0.9 6.4 2
v 0.7 6.4 1.8
v 0.9 6.4 1.8
v 0.5 6.5 2
v 0.7 6.5 2
v 0.5 6.5 1.8
v 0.7 6.5 1.8
v 0.1 6.6 2
v 0.5 6.6 2
v 0.1 6.6 1.8
v 0.5 6.6 1.8

# faces
f 3/1/1 2/1/1 1/1/1
f 4/1/1 2/1/1 3/1/1
f 7/2/1 6/2/1 5/2/1
f 8/2/1 6/2/1 7/2/1
f 11/2/1 10/2/1 9/2/1
f 12/2/1 10/2/1 11/2/1
f 15/1/1 14/1/1 13/1/1
f 16/1/1 14/1/1 15/1/1
f 19/1/1 18/1/1 17/1/1
f 20/1/1 18/1/1 19/1/1
f 23/1/1 22/1/1 21/1/1
f 24/1/1 22/1/1 23/1/1
f 27/1/1 26/1/1 25/1/1
f 28/1/1 26/1/1 27/1/1
f 31/1/1 30/1/1 29/1/1
f 32/1/1 30/1/1 31/1/1
f 35/1/1 34/1/1 33/1/1
f 36/1/1 34/1/1 35/1/1
f 39/1/1 38/1/1 37/1/1
f 40/1/1 38/1/1 39/1/1
f 43/1/1 42/1/1 41/1/1
f 44/1/1 42/1/1 43/1/1
f 47/1/1 46/1/1 45/1/1
f 48/1/1 46/1/1 47/1/1
f 51/1/1 50/1/1 49/1/1
f 52/1/1 50/1/1 51/1/1
f 53/2/2 54/2/2 55/2/2
f 55/2/2 54/2/2 56/2/2
f 57/2/2 58/2/2 59/2/2
f 59/2/2 58/2/2 60/2/2
f 61/1/2 62/1/2 63/1/2
f 63/1/2 62/1/2 64/1/2
f 65/1/2 66/1/2 67/1/2
f 67/1/2 66/1/2 68/1/2
f 69/1/2 70/1/2 71/1/2
f 71/1/2 70/1/2 72/1/2
f 73/1/2 74/1/2 75/1/2
f 75/1/2 74/1/2 76/1/2
f 77/1/2 78/1/2 79/1/2
f 79/1/2 78/1/2 80/1/2
f 81/1/2 82/1/2 83/1/2
f 83/1/2 82/1/2 84/1/2
f 85/1/2 86/1/2 87/1/2
f 87/1/2 86/1/2 88/1/2
f 89/1/2 90/1/2 91/1/2
f 91/1/2 90/1/2 92/1/2
f 93/1/2 94/1/2 95/1/2
f 95/1/2 94/1/2 96/1/2
f 97/1/2 98/1/2 99/1/2
f 99/1/2 98/1/2 100/1/2
f 101/1/2 102/1/2 103/1/2
f 103/1/2 102/1/2 104/1/2
f 105/1/2 106/1/2 107/1/2
f 107/1/2 106/1/2 108/1/2
f 109/1/2 110/1/2 111/1/2
f 111/1/2 110/1/2 112/1/2
f 113/1/2 114/1/2 115/1/2
f 115/1/2 114/1/2 116/1/2
f 117/1/2 118/1/2 119/1/2
f 119/1/2 118/1/2 120/1/2
f 121/1/2 122/1/2 123/1/2
f 123/1/2 122/1/2 124/1/2
f 125/1/2 126/1/2 127/1/2
f 127/1/2 126/1/2 128/1/2
f 129/1/2 130/1/2 131/1/2
f 131/1/2 130/1/2 132/1/2
f 135/2/3 134/2/3 133/2/3
f 136/2/3 134/2/3 135/2/3
f 141/1/3 138/1/3 137/1/3
f 142/1/3 138/1/3 141/1/3
f 143/1/3 140/1/3 139/1/3
f 144/1/3 140/1/3 143/1/3
f 146/1/3 140/1/3 144/1/3
f 147/1/3 140/1/3 146/1/3
f 149/1/3 146/1/3 145/1/3
f 150/1/3 146/1/3 149/1/3
f 152/1/3 149/1/3 148/1/3
f 153/1/3 149/1/3 152/1/3
f 155/1/3 152/1/3 151/1/3
f 156/1/3 152/1/3 155/1/3
f 158/1/3 155/1/3 154/1/3
f 159/1/3 155/1/3 158/1/3
f 161/1/3 158/1/3 157/1/3
f 162/1/3 158/1/3 161/1/3
f 163/1/3 141/1/3 137/1/3
f 164/1/3 138/1/3 142/1/3
f 165/1/3 143/1/3 139/1/3
f 166/1/3 161/1/3 160/1/3
f 167/1/3 161/1/3 166/1/3
f 168/1/3 163/1/3 137/1/3
f 168/1/3 164/1/3 163/1/3
f 169/1/3 138/1/3 164/1/3
f 169/1/3 164/1/3 168/1/3
f 170/1/3 166/1/3 165/1/3
f 170/1/3 165/1/3 139/1/3
f 171/1/3 166/1/3 170/1/3
f 174/1/3 173/1/3 172/1/3
f 175/1/3 173/1/3 174/1/3
f 176/1/3 174/1/3 172/1/3
f 177/1/3 173/1/3 175/1/3
f 178/1/3 176/1/3 172/1/3
f 178/1/3 177/1/3 176/1/3
f 179/1/3 177/1/3 178/1/3
f 180/1/3 173/1/3 177/1/3
f 180/1/3 177/1/3 179/1/3
f 181/1/3 173/1/3 180/1/3
f 182/1/3 173/1/3 181/1/3
f 183/1/3 173/1/3 182/1/3
f 188/1/3 187/1/3 186/1/3
f 189/1/3 187/1/3 188/1/3
f 190/1/3 182/1/3 181/1/3
f 191/1/3 182/1/3 190/1/3
f 192/1/3 182/1/3 191/1/3
f 193/1/3 190/1/3 189/1/3
f 193/1/3 191/1/3 190/1/3
f 194/1/3 191/1/3 193/1/3
f 195/1/3 188/1/3 186/1/3
f 196/1/3 188/1/3 195/1/3
f 197/1/3 193/1/3 189/1/3
f 198/1/3 197/1/3 196/1/3
f 198/1/3 193/1/3 197/1/3
f 199/1/3 193/1/3 198/1/3
f 200/1/3 195/1/3 186/1/3
f 201/1/3 195/1/3 200/1/3
f 202/1/3 198/1/3 196/1/3
f 203/1/3 200/1/3 186/1/3
f 204/1/3 200/1/3 203/1/3
f 205/1/3 202/1/3 201/1/3
f 206/1/3 198/1/3 202/1/3
f 206/1/3 202/1/3 205/1/3
f 207/1/3 198/1/3 206/1/3
f 208/1/3 205/1/3 204/1/3
f 208/1/3 206/1/3 205/1/3
f 209/1/3 206/1/3 208/1/3
f 210/1/3 203/1/3 186/1/3
f 211/1/3 203/1/3 210/1/3
f 212/1/3 208/1/3 204/1/3
f 213/1/3 210/1/3 186/1/3
f 214/1/3 210/1/3 213/1/3
f 215/1/3 212/1/3 211/1/3
f 216/1/3 185/1/3 184/1/3
f 217/1/3 185/1/3 216/1/3
f 218/1/3 213/1/3 186/1/3
f 219/1/3 213/1/3 218/1/3
f 220/1/3 215/1/3 214/1/3
f 221/1/3 178/1/3 172/1/3
f 222/1/3 180/1/3 179/1/3
f 223/1/3 180/1/3 222/1/3
f 224/1/3 220/1/3 219/1/3
f 225/1/3 223/1/3 222/1/3
f 225/1/3 224/1/3 223/1/3
f 225/1/3 221/1/3 172/1/3
f 225/1/3 222/1/3 221/1/3
f 226/1/3 220/1/3 224/1/3
f 226/1/3 224/1/3 225/1/3
f 226/1/3 215/1/3 220/1/3
f 226/1/3 212/1/3 215/1/3
f 226/1/3 208/1/3 212/1/3
f 227/2/4 228/2/4 229/2/4
f 229/2/4 228/2/4 230/2/4
f 227/2/4 229/2/4 231/2/4
f 230/2/4 228/2/4 232/2/4
f 227/2/4 231/2/4 233/2/4
f 231/2/4 232/2/4 233/2/4
f 232/2/4 228/2/4 234/2/4
f 233/2/4 232/2/4 234/2/4
f 235/1/4 236/1/4 237/1/4
f 237/1/4 236/1/4 238/1/4
f 235/1/4 237/1/4 239/1/4
f 239/1/4 237/1/4 240/1/4
f 235/1/4 239/1/4 241/1/4
f 241/1/4 239/1/4 242/1/4
f 235/1/4 241/1/4 243/1/4
f 243/1/4 241/1/4 244/1/4
f 235/1/4 243/1/4 245/1/4
f 245/1/4 243/1/4 246/1/4
f 235/1/4 245/1/4 247/1/4
f 247/1/4 245/1/4 248/1/4
f 235/1/4 247/1/4 249/1/4
f 249/1/4 247/1/4 250/1/4
f 253/1/5 252/1/5 251/1/5
f 254/1/5 252/1/5 253/1/5
f 257/1/5 256/1/5 255/1/5
f 258/1/5 256/1/5 257/1/5
f 261/1/5 260/1/5 259/1/5
f 262/1/5 260/1/5 261/1/5
f 265/2/5 264/2/5 263/2/5
f 266/2/5 264/2/5 265/2/5
f 269/2/5 268/2/5 267/2/5
f 270/2/5 268/2/5 269/2/5
f 273/1/5 272/1/5 271/1/5
f 274/1/5 272/1/5 273/1/5
f 277/1/5 276/1/5 275/1/5
f 278/1/5 276/1/5 277/1/5
f 281/1/5 280/1/5 279/1/5
f 282/1/5 280/1/5 281/1/5
f 285/1/5 284/1/5 283/1/5
f 286/1/5 284/1/5 285/1/5
f 289/1/5 288/1/5 287/1/5
f 290/1/5 288/1/5 289/1/5
f 293/1/5 292/1/5 291/1/5
f 294/1/5 292/1/5 293/1/5
f 297/1/5 296/1/5 295/1/5
f 298/1/5 296/1/5 297/1/5
f 301/1/5 300/1/5 299/1/5
f 302/1/5 300/1/5 301/1/5
f 303/1/6 304/1/6 305/1/6
f 305/1/6 304/1/6 306/1/6
f 307/1/6 308/1/6 309/1/6
f 309/1/6 308/1/6 310/1/6
f 311/2/6 312/2/6 313/2/6
f 313/2/6 312/2/6 314/2/6
f 315/2/6 316/2/6 317/2/6
f 317/2/6 316/2/6 318/2/6
f 319/1/6 320/1/6 321/1/6
f 321/1/6 320/1/6 322/1/6
f 323/1/6 324/1/6 325/1/6
f 325/1/6 324/1/6 326/1/6
f 327/1/6 328/1/6 329/1/6
f 329/1/6 328/1/6 330/1/6
f 331/1/6 332/1/6 333/1/6
f 333/1/6 332/1/6 334/1/6
f 335/1/6 336/1/6 337/1/6
f 337/1/6 336/1/6 338/1/6
f 339/1/6 340/1/6 341/1/6
f 341/1/6 340/1/6 342/1/6
f 343/1/6 344/1/6 345/1/6
f 345/1/6 344/1/6 346/1/6
f 347/1/6 348/1/6 349/1/6
f 349/1/6 348/1/6 350/1/6
f 351/1/6 352/1/6 353/1/6
f 353/1/6 352/1/6 354/1/6
f 355/1/6 356/1/6 357/1/6
f 357/1/6 356/1/6 358/1/6
f 359/1/6 360/1/6 361/1/6
f 361/1/6 360/1/6 362/1/6
f 363/1/6 364/1/6 365/1/6
f 365/1/6 364/1/6 366/1/6
f 367/1/6 368/1/6 369/1/6
f 369/1/6 368/1/6 370/1/6
f 371/1/6 372/1/6 373/1/6
f 373/1/6 372/1/6 374/1/6
f 375/1/6 376/1/6 377/1/6
f 377/1/6 376/1/6 378/1/6
f 379/1/6 380/1/6 381/1/6
f 381/1/6 380/1/6 382/1/6
